<mxfile host="Electron" agent="Mozilla/5.0 (Windows NT 10.0; Win64; x64) AppleWebKit/537.36 (KHTML, like Gecko) draw.io/28.0.6 Chrome/138.0.7204.100 Electron/37.2.3 Safari/537.36" version="28.0.6">
  <diagram name="Page-1" id="L6W4wEMaRIdZLWXau7qN">
    <mxGraphModel dx="1042" dy="722" grid="1" gridSize="10" guides="1" tooltips="1" connect="1" arrows="1" fold="1" page="1" pageScale="1" pageWidth="1920" pageHeight="1200" math="0" shadow="0">
      <root>
        <mxCell id="0" />
        <mxCell id="1" parent="0" />
        <mxCell id="zPSnhLjRNMUB03k3eZok-1" value="" style="rounded=0;whiteSpace=wrap;html=1;fillColor=none;dashed=1;strokeColor=light-dark(#2c2626, #ededed);" vertex="1" parent="1">
          <mxGeometry x="120" y="440" width="154.35" height="510" as="geometry" />
        </mxCell>
        <mxCell id="zPSnhLjRNMUB03k3eZok-2" value="&lt;font style=&quot;font-size: 24px;&quot;&gt;Sources&lt;/font&gt;" style="rounded=0;whiteSpace=wrap;html=1;strokeColor=none;" vertex="1" parent="1">
          <mxGeometry x="152.17000000000007" y="420" width="90" height="50" as="geometry" />
        </mxCell>
        <mxCell id="zPSnhLjRNMUB03k3eZok-21" style="edgeStyle=orthogonalEdgeStyle;rounded=0;orthogonalLoop=1;jettySize=auto;html=1;entryX=0;entryY=0.5;entryDx=0;entryDy=0;" edge="1" parent="1" source="zPSnhLjRNMUB03k3eZok-3" target="zPSnhLjRNMUB03k3eZok-16">
          <mxGeometry relative="1" as="geometry" />
        </mxCell>
        <mxCell id="zPSnhLjRNMUB03k3eZok-28" style="edgeStyle=orthogonalEdgeStyle;rounded=0;orthogonalLoop=1;jettySize=auto;html=1;entryX=0;entryY=0.5;entryDx=0;entryDy=0;" edge="1" parent="1" source="zPSnhLjRNMUB03k3eZok-3" target="zPSnhLjRNMUB03k3eZok-17">
          <mxGeometry relative="1" as="geometry" />
        </mxCell>
        <mxCell id="zPSnhLjRNMUB03k3eZok-29" style="edgeStyle=orthogonalEdgeStyle;rounded=0;orthogonalLoop=1;jettySize=auto;html=1;entryX=0;entryY=0.5;entryDx=0;entryDy=0;" edge="1" parent="1" source="zPSnhLjRNMUB03k3eZok-3" target="zPSnhLjRNMUB03k3eZok-18">
          <mxGeometry relative="1" as="geometry" />
        </mxCell>
        <mxCell id="zPSnhLjRNMUB03k3eZok-3" value="&lt;b&gt;CRM&lt;/b&gt;" style="image;aspect=fixed;html=1;points=[];align=center;fontSize=12;image=img/lib/azure2/general/Folder_Blank.svg;" vertex="1" parent="1">
          <mxGeometry x="172.53000000000003" y="550" width="49.29" height="40" as="geometry" />
        </mxCell>
        <mxCell id="zPSnhLjRNMUB03k3eZok-4" value="" style="image;aspect=fixed;html=1;points=[];align=center;fontSize=12;image=img/lib/azure2/general/File.svg;" vertex="1" parent="1">
          <mxGeometry x="197.47000000000008" y="560" width="24.35" height="30" as="geometry" />
        </mxCell>
        <mxCell id="zPSnhLjRNMUB03k3eZok-30" style="edgeStyle=orthogonalEdgeStyle;rounded=0;orthogonalLoop=1;jettySize=auto;html=1;entryX=0;entryY=0.5;entryDx=0;entryDy=0;" edge="1" parent="1" source="zPSnhLjRNMUB03k3eZok-5" target="zPSnhLjRNMUB03k3eZok-25">
          <mxGeometry relative="1" as="geometry" />
        </mxCell>
        <mxCell id="zPSnhLjRNMUB03k3eZok-32" style="edgeStyle=orthogonalEdgeStyle;rounded=0;orthogonalLoop=1;jettySize=auto;html=1;entryX=0;entryY=0.5;entryDx=0;entryDy=0;" edge="1" parent="1" source="zPSnhLjRNMUB03k3eZok-5" target="zPSnhLjRNMUB03k3eZok-27">
          <mxGeometry relative="1" as="geometry" />
        </mxCell>
        <mxCell id="zPSnhLjRNMUB03k3eZok-37" style="edgeStyle=orthogonalEdgeStyle;rounded=0;orthogonalLoop=1;jettySize=auto;html=1;entryX=0;entryY=0.5;entryDx=0;entryDy=0;" edge="1" parent="1" source="zPSnhLjRNMUB03k3eZok-5" target="zPSnhLjRNMUB03k3eZok-26">
          <mxGeometry relative="1" as="geometry" />
        </mxCell>
        <mxCell id="zPSnhLjRNMUB03k3eZok-5" value="&lt;b&gt;&amp;nbsp;ERP&lt;/b&gt;" style="image;aspect=fixed;html=1;points=[];align=center;fontSize=12;image=img/lib/azure2/general/Folder_Blank.svg;" vertex="1" parent="1">
          <mxGeometry x="172.53000000000003" y="770" width="49.29" height="40" as="geometry" />
        </mxCell>
        <mxCell id="zPSnhLjRNMUB03k3eZok-6" value="" style="image;aspect=fixed;html=1;points=[];align=center;fontSize=12;image=img/lib/azure2/general/File.svg;" vertex="1" parent="1">
          <mxGeometry x="201.45999999999998" y="780" width="24.64" height="30.36" as="geometry" />
        </mxCell>
        <mxCell id="zPSnhLjRNMUB03k3eZok-10" value="&lt;font style=&quot;font-size: 20px;&quot;&gt;&lt;b&gt;Bronze Layer&lt;/b&gt;&lt;/font&gt;" style="rounded=0;whiteSpace=wrap;html=1;fillColor=#ffe6cc;strokeColor=#d79b00;" vertex="1" parent="1">
          <mxGeometry x="410" y="440" width="190" height="30" as="geometry" />
        </mxCell>
        <mxCell id="zPSnhLjRNMUB03k3eZok-11" value="&lt;div&gt;&lt;font style=&quot;font-size: 18px;&quot;&gt;&lt;br&gt;&lt;/font&gt;&lt;/div&gt;&lt;div&gt;&lt;font style=&quot;font-size: 18px;&quot;&gt;&lt;br&gt;&lt;/font&gt;&lt;/div&gt;&lt;div&gt;&lt;font style=&quot;font-size: 18px;&quot;&gt;&lt;br&gt;&lt;/font&gt;&lt;/div&gt;&lt;div&gt;&lt;font style=&quot;font-size: 18px;&quot;&gt;&lt;br&gt;&lt;/font&gt;&lt;/div&gt;&lt;div&gt;&lt;font style=&quot;font-size: 18px;&quot;&gt;&lt;br&gt;&lt;/font&gt;&lt;/div&gt;&lt;div&gt;&lt;font style=&quot;font-size: 18px;&quot;&gt;&lt;br&gt;&lt;/font&gt;&lt;/div&gt;&lt;div&gt;&lt;br&gt;&lt;/div&gt;" style="rounded=0;whiteSpace=wrap;html=1;fillColor=none;strokeColor=light-dark(#b68c20, #996500);" vertex="1" parent="1">
          <mxGeometry x="410" y="480" width="190" height="470" as="geometry" />
        </mxCell>
        <mxCell id="zPSnhLjRNMUB03k3eZok-16" value="&lt;font style=&quot;font-size: 15px;&quot;&gt;&lt;b style=&quot;&quot;&gt;crm_sales_details&lt;/b&gt;&lt;/font&gt;" style="rounded=0;whiteSpace=wrap;html=1;fillColor=#ffe6cc;strokeColor=#d79b00;" vertex="1" parent="1">
          <mxGeometry x="440" y="500" width="140" height="30" as="geometry" />
        </mxCell>
        <mxCell id="zPSnhLjRNMUB03k3eZok-47" style="edgeStyle=orthogonalEdgeStyle;rounded=0;orthogonalLoop=1;jettySize=auto;html=1;entryX=0;entryY=0.5;entryDx=0;entryDy=0;" edge="1" parent="1" source="zPSnhLjRNMUB03k3eZok-17" target="zPSnhLjRNMUB03k3eZok-41">
          <mxGeometry relative="1" as="geometry" />
        </mxCell>
        <mxCell id="zPSnhLjRNMUB03k3eZok-17" value="&lt;b style=&quot;&quot;&gt;&lt;font style=&quot;font-size: 15px;&quot;&gt;crm_cust_info&lt;/font&gt;&lt;/b&gt;" style="rounded=0;whiteSpace=wrap;html=1;fillColor=#ffe6cc;strokeColor=#d79b00;" vertex="1" parent="1">
          <mxGeometry x="440" y="560" width="140" height="30" as="geometry" />
        </mxCell>
        <mxCell id="zPSnhLjRNMUB03k3eZok-48" style="edgeStyle=orthogonalEdgeStyle;rounded=0;orthogonalLoop=1;jettySize=auto;html=1;entryX=0;entryY=0.5;entryDx=0;entryDy=0;" edge="1" parent="1" source="zPSnhLjRNMUB03k3eZok-18" target="zPSnhLjRNMUB03k3eZok-42">
          <mxGeometry relative="1" as="geometry" />
        </mxCell>
        <mxCell id="zPSnhLjRNMUB03k3eZok-18" value="&lt;font style=&quot;font-size: 15px;&quot;&gt;&lt;b style=&quot;&quot;&gt;crm_prd_info&lt;/b&gt;&lt;/font&gt;" style="rounded=0;whiteSpace=wrap;html=1;fillColor=#ffe6cc;strokeColor=#d79b00;" vertex="1" parent="1">
          <mxGeometry x="440" y="620" width="140" height="30" as="geometry" />
        </mxCell>
        <mxCell id="zPSnhLjRNMUB03k3eZok-49" style="edgeStyle=orthogonalEdgeStyle;rounded=0;orthogonalLoop=1;jettySize=auto;html=1;entryX=0;entryY=0.5;entryDx=0;entryDy=0;" edge="1" parent="1" source="zPSnhLjRNMUB03k3eZok-25" target="zPSnhLjRNMUB03k3eZok-43">
          <mxGeometry relative="1" as="geometry" />
        </mxCell>
        <mxCell id="zPSnhLjRNMUB03k3eZok-25" value="&lt;font style=&quot;font-size: 15px;&quot;&gt;&lt;b style=&quot;&quot;&gt;erp_cust_az12&lt;/b&gt;&lt;/font&gt;" style="rounded=0;whiteSpace=wrap;html=1;fillColor=#ffe6cc;strokeColor=#d79b00;" vertex="1" parent="1">
          <mxGeometry x="440" y="720" width="140" height="30" as="geometry" />
        </mxCell>
        <mxCell id="zPSnhLjRNMUB03k3eZok-50" style="edgeStyle=orthogonalEdgeStyle;rounded=0;orthogonalLoop=1;jettySize=auto;html=1;entryX=0;entryY=0.5;entryDx=0;entryDy=0;" edge="1" parent="1" source="zPSnhLjRNMUB03k3eZok-26" target="zPSnhLjRNMUB03k3eZok-44">
          <mxGeometry relative="1" as="geometry" />
        </mxCell>
        <mxCell id="zPSnhLjRNMUB03k3eZok-26" value="&lt;b style=&quot;&quot;&gt;&lt;font style=&quot;font-size: 15px;&quot;&gt;erp_loc_a101&lt;/font&gt;&lt;/b&gt;" style="rounded=0;whiteSpace=wrap;html=1;fillColor=#ffe6cc;strokeColor=#d79b00;" vertex="1" parent="1">
          <mxGeometry x="440" y="780" width="140" height="30" as="geometry" />
        </mxCell>
        <mxCell id="zPSnhLjRNMUB03k3eZok-51" style="edgeStyle=orthogonalEdgeStyle;rounded=0;orthogonalLoop=1;jettySize=auto;html=1;" edge="1" parent="1" source="zPSnhLjRNMUB03k3eZok-27" target="zPSnhLjRNMUB03k3eZok-45">
          <mxGeometry relative="1" as="geometry" />
        </mxCell>
        <mxCell id="zPSnhLjRNMUB03k3eZok-27" value="&lt;font style=&quot;font-size: 15px;&quot;&gt;&lt;b style=&quot;&quot;&gt;erp_px_cat_g1v2&lt;/b&gt;&lt;/font&gt;" style="rounded=0;whiteSpace=wrap;html=1;fillColor=#ffe6cc;strokeColor=#d79b00;" vertex="1" parent="1">
          <mxGeometry x="440" y="840" width="140" height="30" as="geometry" />
        </mxCell>
        <mxCell id="zPSnhLjRNMUB03k3eZok-34" value="&lt;font style=&quot;font-size: 23px;&quot;&gt;&lt;b&gt;DATA FLOW DIAGRAM&lt;/b&gt;&lt;/font&gt;" style="text;html=1;align=center;verticalAlign=middle;whiteSpace=wrap;rounded=0;" vertex="1" parent="1">
          <mxGeometry x="40" y="370" width="288" height="30" as="geometry" />
        </mxCell>
        <mxCell id="zPSnhLjRNMUB03k3eZok-38" value="&lt;font style=&quot;font-size: 20px;&quot;&gt;&lt;b&gt;Silver Layer&lt;/b&gt;&lt;/font&gt;" style="rounded=0;whiteSpace=wrap;html=1;fillColor=#f5f5f5;strokeColor=#666666;fontColor=#333333;" vertex="1" parent="1">
          <mxGeometry x="730" y="440" width="190" height="30" as="geometry" />
        </mxCell>
        <mxCell id="zPSnhLjRNMUB03k3eZok-39" value="&lt;div&gt;&lt;font style=&quot;font-size: 18px;&quot;&gt;&lt;br&gt;&lt;/font&gt;&lt;/div&gt;&lt;div&gt;&lt;font style=&quot;font-size: 18px;&quot;&gt;&lt;br&gt;&lt;/font&gt;&lt;/div&gt;&lt;div&gt;&lt;font style=&quot;font-size: 18px;&quot;&gt;&lt;br&gt;&lt;/font&gt;&lt;/div&gt;&lt;div&gt;&lt;font style=&quot;font-size: 18px;&quot;&gt;&lt;br&gt;&lt;/font&gt;&lt;/div&gt;&lt;div&gt;&lt;font style=&quot;font-size: 18px;&quot;&gt;&lt;br&gt;&lt;/font&gt;&lt;/div&gt;&lt;div&gt;&lt;font style=&quot;font-size: 18px;&quot;&gt;&lt;br&gt;&lt;/font&gt;&lt;/div&gt;&lt;div&gt;&lt;br&gt;&lt;/div&gt;" style="rounded=0;whiteSpace=wrap;html=1;fillColor=none;strokeColor=#666666;fontColor=#333333;" vertex="1" parent="1">
          <mxGeometry x="730" y="480" width="190" height="470" as="geometry" />
        </mxCell>
        <mxCell id="zPSnhLjRNMUB03k3eZok-40" value="&lt;font style=&quot;font-size: 15px;&quot;&gt;&lt;b style=&quot;&quot;&gt;crm_sales_details&lt;/b&gt;&lt;/font&gt;" style="rounded=0;whiteSpace=wrap;html=1;fillColor=#f5f5f5;strokeColor=#666666;fontColor=#333333;" vertex="1" parent="1">
          <mxGeometry x="760" y="500" width="140" height="30" as="geometry" />
        </mxCell>
        <mxCell id="zPSnhLjRNMUB03k3eZok-41" value="&lt;b style=&quot;&quot;&gt;&lt;font style=&quot;font-size: 15px;&quot;&gt;crm_cust_info&lt;/font&gt;&lt;/b&gt;" style="rounded=0;whiteSpace=wrap;html=1;fillColor=#f5f5f5;strokeColor=#666666;fontColor=#333333;" vertex="1" parent="1">
          <mxGeometry x="760" y="560" width="140" height="30" as="geometry" />
        </mxCell>
        <mxCell id="zPSnhLjRNMUB03k3eZok-42" value="&lt;font style=&quot;font-size: 15px;&quot;&gt;&lt;b style=&quot;&quot;&gt;crm_prd_info&lt;/b&gt;&lt;/font&gt;" style="rounded=0;whiteSpace=wrap;html=1;fillColor=#f5f5f5;strokeColor=#666666;fontColor=#333333;" vertex="1" parent="1">
          <mxGeometry x="760" y="620" width="140" height="30" as="geometry" />
        </mxCell>
        <mxCell id="zPSnhLjRNMUB03k3eZok-43" value="&lt;font style=&quot;font-size: 15px;&quot;&gt;&lt;b style=&quot;&quot;&gt;erp_cust_az12&lt;/b&gt;&lt;/font&gt;" style="rounded=0;whiteSpace=wrap;html=1;fillColor=#f5f5f5;strokeColor=#666666;fontColor=#333333;" vertex="1" parent="1">
          <mxGeometry x="760" y="720" width="140" height="30" as="geometry" />
        </mxCell>
        <mxCell id="zPSnhLjRNMUB03k3eZok-44" value="&lt;b style=&quot;&quot;&gt;&lt;font style=&quot;font-size: 15px;&quot;&gt;erp_loc_a101&lt;/font&gt;&lt;/b&gt;" style="rounded=0;whiteSpace=wrap;html=1;fillColor=#f5f5f5;strokeColor=#666666;fontColor=#333333;" vertex="1" parent="1">
          <mxGeometry x="760" y="780" width="140" height="30" as="geometry" />
        </mxCell>
        <mxCell id="zPSnhLjRNMUB03k3eZok-45" value="&lt;font style=&quot;font-size: 15px;&quot;&gt;&lt;b style=&quot;&quot;&gt;erp_px_cat_g1v2&lt;/b&gt;&lt;/font&gt;" style="rounded=0;whiteSpace=wrap;html=1;fillColor=#f5f5f5;strokeColor=#666666;fontColor=#333333;" vertex="1" parent="1">
          <mxGeometry x="760" y="840" width="140" height="30" as="geometry" />
        </mxCell>
        <mxCell id="zPSnhLjRNMUB03k3eZok-46" style="edgeStyle=orthogonalEdgeStyle;rounded=0;orthogonalLoop=1;jettySize=auto;html=1;entryX=0;entryY=0.5;entryDx=0;entryDy=0;" edge="1" parent="1" source="zPSnhLjRNMUB03k3eZok-16" target="zPSnhLjRNMUB03k3eZok-40">
          <mxGeometry relative="1" as="geometry">
            <mxPoint x="740" y="516" as="targetPoint" />
          </mxGeometry>
        </mxCell>
        <mxCell id="zPSnhLjRNMUB03k3eZok-52" value="&lt;font style=&quot;font-size: 20px;&quot;&gt;&lt;b&gt;Gold Layer&lt;/b&gt;&lt;/font&gt;" style="rounded=0;whiteSpace=wrap;html=1;fillColor=#fff2cc;strokeColor=#d6b656;" vertex="1" parent="1">
          <mxGeometry x="1050" y="440" width="190" height="30" as="geometry" />
        </mxCell>
        <mxCell id="zPSnhLjRNMUB03k3eZok-53" value="&lt;div&gt;&lt;font style=&quot;font-size: 18px;&quot;&gt;&lt;br&gt;&lt;/font&gt;&lt;/div&gt;&lt;div&gt;&lt;font style=&quot;font-size: 18px;&quot;&gt;&lt;br&gt;&lt;/font&gt;&lt;/div&gt;&lt;div&gt;&lt;font style=&quot;font-size: 18px;&quot;&gt;&lt;br&gt;&lt;/font&gt;&lt;/div&gt;&lt;div&gt;&lt;font style=&quot;font-size: 18px;&quot;&gt;&lt;br&gt;&lt;/font&gt;&lt;/div&gt;&lt;div&gt;&lt;font style=&quot;font-size: 18px;&quot;&gt;&lt;br&gt;&lt;/font&gt;&lt;/div&gt;&lt;div&gt;&lt;font style=&quot;font-size: 18px;&quot;&gt;&lt;br&gt;&lt;/font&gt;&lt;/div&gt;&lt;div&gt;&lt;br&gt;&lt;/div&gt;" style="rounded=0;whiteSpace=wrap;html=1;fillColor=none;strokeColor=#d6b656;" vertex="1" parent="1">
          <mxGeometry x="1050" y="480" width="190" height="470" as="geometry" />
        </mxCell>
        <mxCell id="zPSnhLjRNMUB03k3eZok-54" value="&lt;font style=&quot;font-size: 15px;&quot;&gt;&lt;b style=&quot;&quot;&gt;fact_sales&lt;/b&gt;&lt;/font&gt;" style="rounded=0;whiteSpace=wrap;html=1;fillColor=#fff2cc;strokeColor=#d6b656;" vertex="1" parent="1">
          <mxGeometry x="1075" y="610" width="140" height="30" as="geometry" />
        </mxCell>
        <mxCell id="zPSnhLjRNMUB03k3eZok-55" value="&lt;b style=&quot;&quot;&gt;&lt;font style=&quot;font-size: 15px;&quot;&gt;dim_customers&lt;/font&gt;&lt;/b&gt;" style="rounded=0;whiteSpace=wrap;html=1;fillColor=#fff2cc;strokeColor=#d6b656;" vertex="1" parent="1">
          <mxGeometry x="1075" y="670" width="140" height="30" as="geometry" />
        </mxCell>
        <mxCell id="zPSnhLjRNMUB03k3eZok-56" value="&lt;font style=&quot;font-size: 15px;&quot;&gt;&lt;b style=&quot;&quot;&gt;dim_products&lt;/b&gt;&lt;/font&gt;" style="rounded=0;whiteSpace=wrap;html=1;fillColor=#fff2cc;strokeColor=#d6b656;" vertex="1" parent="1">
          <mxGeometry x="1075" y="730" width="140" height="30" as="geometry" />
        </mxCell>
        <mxCell id="zPSnhLjRNMUB03k3eZok-60" value="" style="endArrow=classic;html=1;rounded=0;entryX=0;entryY=0.5;entryDx=0;entryDy=0;" edge="1" parent="1" target="zPSnhLjRNMUB03k3eZok-54">
          <mxGeometry width="50" height="50" relative="1" as="geometry">
            <mxPoint x="900" y="520" as="sourcePoint" />
            <mxPoint x="950" y="470" as="targetPoint" />
          </mxGeometry>
        </mxCell>
        <mxCell id="zPSnhLjRNMUB03k3eZok-61" value="" style="endArrow=classic;html=1;rounded=0;entryX=0;entryY=0.5;entryDx=0;entryDy=0;jumpStyle=gap;" edge="1" parent="1" target="zPSnhLjRNMUB03k3eZok-55">
          <mxGeometry width="50" height="50" relative="1" as="geometry">
            <mxPoint x="900" y="572.5" as="sourcePoint" />
            <mxPoint x="1075" y="677.5" as="targetPoint" />
          </mxGeometry>
        </mxCell>
        <mxCell id="zPSnhLjRNMUB03k3eZok-62" value="" style="endArrow=classic;html=1;rounded=0;entryX=0;entryY=0.75;entryDx=0;entryDy=0;jumpStyle=gap;" edge="1" parent="1" target="zPSnhLjRNMUB03k3eZok-55">
          <mxGeometry width="50" height="50" relative="1" as="geometry">
            <mxPoint x="900" y="730" as="sourcePoint" />
            <mxPoint x="1075" y="835" as="targetPoint" />
          </mxGeometry>
        </mxCell>
        <mxCell id="zPSnhLjRNMUB03k3eZok-63" value="" style="endArrow=classic;html=1;rounded=0;entryX=0;entryY=1;entryDx=0;entryDy=0;jumpStyle=gap;" edge="1" parent="1" target="zPSnhLjRNMUB03k3eZok-55">
          <mxGeometry width="50" height="50" relative="1" as="geometry">
            <mxPoint x="900" y="800" as="sourcePoint" />
            <mxPoint x="1075" y="905" as="targetPoint" />
          </mxGeometry>
        </mxCell>
        <mxCell id="zPSnhLjRNMUB03k3eZok-64" value="" style="endArrow=classic;html=1;rounded=0;entryX=0;entryY=0.5;entryDx=0;entryDy=0;jumpStyle=gap;" edge="1" parent="1">
          <mxGeometry width="50" height="50" relative="1" as="geometry">
            <mxPoint x="900" y="632.5" as="sourcePoint" />
            <mxPoint x="1075" y="737.5" as="targetPoint" />
          </mxGeometry>
        </mxCell>
        <mxCell id="zPSnhLjRNMUB03k3eZok-65" value="" style="endArrow=classic;html=1;rounded=0;entryX=0;entryY=0.75;entryDx=0;entryDy=0;jumpStyle=gap;" edge="1" parent="1" target="zPSnhLjRNMUB03k3eZok-56">
          <mxGeometry width="50" height="50" relative="1" as="geometry">
            <mxPoint x="900" y="850" as="sourcePoint" />
            <mxPoint x="1075" y="955" as="targetPoint" />
          </mxGeometry>
        </mxCell>
      </root>
    </mxGraphModel>
  </diagram>
</mxfile>
